<svg id="Ebene_2" data-name="Ebene 2" xmlns="http://www.w3.org/2000/svg" viewBox="0 0 240.28 92.02"><defs><style>.cls-1{fill:#425968;}.cls-2{fill:#7ac143;}</style></defs><title>bliz</title><path class="cls-1" d="M28.53,49H10.66V6.26H27.81c8.34,0,13.2,4.68,13.2,12a9.88,9.88,0,0,1-5.28,8.82,9.93,9.93,0,0,1,5.88,9.6C41.61,44.66,36.15,49,28.53,49ZM27.15,13.7H19v9.84h8.16c3.54,0,5.52-2,5.52-4.92S30.69,13.7,27.15,13.7ZM27.69,31H19v10.5h8.7c3.78,0,5.58-2.4,5.58-5.28S31.47,31,27.69,31Z" transform="translate(-10.66 -6.22)"/><path class="cls-1" d="M49.83,49V6.26h8.34V41.54H77.55V49H49.83Z" transform="translate(-10.66 -6.22)"/><path class="cls-1" d="M84,49V6.26h8.34V49H84Z" transform="translate(-10.66 -6.22)"/><path class="cls-1" d="M99.45,49V42.26L117.69,13.7H100.23V6.26h27.3v6.6l-18.3,28.68h18.3V49H99.45Z" transform="translate(-10.66 -6.22)"/><path class="cls-1" d="M11.46,77.09V75.85L15.23,65H11.71V63.56h5.21V64.8L13.17,75.63h3.74v1.46H11.46Z" transform="translate(-10.66 -6.22)"/><path class="cls-1" d="M21,77.09V63.56h5.22V65H22.6v4.54h3.1V71H22.6v4.6h3.59v1.46H21Z" transform="translate(-10.66 -6.22)"/><path class="cls-1" d="M35.55,77.09l-3.5-9.25v9.25H30.43V63.56h1.52l3.46,9.25V63.56H37V77.09H35.55Z" transform="translate(-10.66 -6.22)"/><path class="cls-1" d="M44.83,65V77.09H43.19V65H40.91V63.56h6.17V65H44.83Z" transform="translate(-10.66 -6.22)"/><path class="cls-1" d="M55.9,77.09L54,71.27H52.58v5.81H50.95V63.56H54c2.05,0,3.19.89,3.19,3.86,0,1.88-.46,3-1.63,3.53l2.07,6.14H55.9ZM54,65H52.58v4.81H54c1.25,0,1.54-1,1.54-2.41S55.28,65,54,65Z" transform="translate(-10.66 -6.22)"/><path class="cls-1" d="M66.9,76.35a3.14,3.14,0,0,1-2.26.89,3.1,3.1,0,0,1-2.24-.89A3.21,3.21,0,0,1,61.53,74V63.56h1.63V74.11a1.5,1.5,0,1,0,3,0V63.56h1.63V74A3.21,3.21,0,0,1,66.9,76.35Z" transform="translate(-10.66 -6.22)"/><path class="cls-1" d="M79.23,77.09V67.46l-2.15,6.33h-1L74,67.61v9.48H72.34V63.56h1.54l2.74,7.52,2.72-7.52h1.54V77.09H79.23Z" transform="translate(-10.66 -6.22)"/><path class="cls-1" d="M93,65v4.54h3.1V71H93v6.06H91.36V63.56h5.22V65H93Z" transform="translate(-10.66 -6.22)"/><path class="cls-1" d="M106,76.35a3.14,3.14,0,0,1-2.26.89,3.1,3.1,0,0,1-2.24-.89,3.21,3.21,0,0,1-.87-2.34V63.56h1.63V74.11a1.5,1.5,0,1,0,3,0V63.56h1.63V74A3.21,3.21,0,0,1,106,76.35Zm-4.52-14V60.79H103v1.54h-1.56Zm3,0V60.79H106v1.54h-1.56Z" transform="translate(-10.66 -6.22)"/><path class="cls-1" d="M116.38,77.09l-1.86-5.81h-1.46v5.81h-1.63V63.56h3.06c2.05,0,3.19.89,3.19,3.86,0,1.88-.46,3-1.63,3.53l2.07,6.14h-1.73ZM114.5,65h-1.44v4.81h1.44c1.25,0,1.54-1,1.54-2.41S115.75,65,114.5,65Z" transform="translate(-10.66 -6.22)"/><path class="cls-1" d="M133.5,76.27a3.18,3.18,0,0,1-2.49.82H128.1V63.56H131a3.13,3.13,0,0,1,2.47.82c0.59,0.61.8,1.27,0.8,2.74a3.07,3.07,0,0,1-.8,2.41,2.45,2.45,0,0,1-.76.51,2.32,2.32,0,0,1,.84.49,3.54,3.54,0,0,1,.82,2.75C134.37,74.92,134.11,75.64,133.5,76.27ZM130.93,65h-1.2v4.33h1.2c1.16,0,1.71-.63,1.71-2.17S132.11,65,130.93,65Zm0,5.74h-1.18v4.86h1.18c1.24,0,1.82-.57,1.82-2.43S132.13,70.76,130.92,70.76Z" transform="translate(-10.66 -6.22)"/><path class="cls-1" d="M138.78,77.09V63.56h1.63V75.63H144v1.46h-5.22Z" transform="translate(-10.66 -6.22)"/><path class="cls-1" d="M147.88,77.09V63.56h1.63V77.09h-1.63Z" transform="translate(-10.66 -6.22)"/><path class="cls-1" d="M159.34,77.09l-3.5-9.25v9.25h-1.63V63.56h1.52l3.46,9.25V63.56h1.63V77.09h-1.48Z" transform="translate(-10.66 -6.22)"/><path class="cls-1" d="M170.95,76.14a2.94,2.94,0,0,1-2.32,1h-3.12V63.56h3.12a2.94,2.94,0,0,1,2.32,1c0.87,0.93,1,2.15,1,5.81S171.82,75.21,170.95,76.14Zm-1.22-10.6a1.43,1.43,0,0,0-1.16-.51h-1.42v10.6h1.42a1.43,1.43,0,0,0,1.16-.51c0.51-.63.55-1.67,0.55-4.79S170.24,66.16,169.73,65.54Z" transform="translate(-10.66 -6.22)"/><path class="cls-1" d="M176.27,77.09V63.56h5.22V65H177.9v4.54H181V71h-3.1v4.6h3.59v1.46h-5.22Z" transform="translate(-10.66 -6.22)"/><path class="cls-1" d="M196.79,76.35a3.14,3.14,0,0,1-2.26.89,3.1,3.1,0,0,1-2.24-.89,3.21,3.21,0,0,1-.87-2.34V63.56H193V74.11a1.5,1.5,0,1,0,3,0V63.56h1.63V74A3.21,3.21,0,0,1,196.79,76.35Z" transform="translate(-10.66 -6.22)"/><path class="cls-1" d="M207.35,77.09l-3.5-9.25v9.25h-1.63V63.56h1.52l3.46,9.25V63.56h1.63V77.09h-1.48Z" transform="translate(-10.66 -6.22)"/><path class="cls-1" d="M219,76.14a2.94,2.94,0,0,1-2.32,1h-3.12V63.56h3.12a2.94,2.94,0,0,1,2.32,1c0.87,0.93,1,2.15,1,5.81S219.83,75.21,219,76.14Zm-1.22-10.6a1.43,1.43,0,0,0-1.16-.51h-1.42v10.6h1.42a1.43,1.43,0,0,0,1.16-.51c0.51-.63.55-1.67,0.55-4.79S218.26,66.16,217.74,65.54Z" transform="translate(-10.66 -6.22)"/><path class="cls-1" d="M17.2,97.4a3.36,3.36,0,0,1-2.39.82,3.24,3.24,0,0,1-2.37-.82,3.62,3.62,0,0,1-.84-2.85h1.63a2.35,2.35,0,0,0,.46,1.77,1.49,1.49,0,0,0,1.12.42A1.48,1.48,0,0,0,16,96.3a2.49,2.49,0,0,0,.44-1.8c0-1.56-.23-2-1.33-2.49l-1.54-.63c-1.39-.57-1.84-1.33-1.84-3.38a3.64,3.64,0,0,1,1-2.77,3.06,3.06,0,0,1,2.15-.78,3.11,3.11,0,0,1,2.24.78A3.56,3.56,0,0,1,18,88H16.37a2.39,2.39,0,0,0-.42-1.63,1.33,1.33,0,0,0-1.1-.46,1.36,1.36,0,0,0-1,.42,2.37,2.37,0,0,0-.48,1.61c0,1.33.21,1.73,1.29,2.18l1.52,0.63c1.54,0.63,1.9,1.58,1.9,3.7A3.86,3.86,0,0,1,17.2,97.4Z" transform="translate(-10.66 -6.22)"/><path class="cls-1" d="M22.31,98.09V84.56h5.22V86H23.95v4.54H27V92h-3.1v4.6h3.59v1.46H22.31Z" transform="translate(-10.66 -6.22)"/><path class="cls-1" d="M36.41,98.09V91.93h-3v6.16H31.77V84.56h1.63v5.91h3V84.56H38V98.09H36.41Z" transform="translate(-10.66 -6.22)"/><path class="cls-1" d="M48.11,97.27a3.18,3.18,0,0,1-2.49.82H42.72V84.56h2.91a3.13,3.13,0,0,1,2.47.82c0.59,0.61.8,1.27,0.8,2.74a3.07,3.07,0,0,1-.8,2.41,2.45,2.45,0,0,1-.76.51,2.32,2.32,0,0,1,.84.49A3.54,3.54,0,0,1,49,94.29C49,95.92,48.72,96.64,48.11,97.27ZM45.55,86h-1.2v4.33h1.2c1.16,0,1.71-.63,1.71-2.17S46.73,86,45.55,86Zm0,5.74H44.35v4.86h1.18c1.24,0,1.82-.57,1.82-2.43S46.75,91.76,45.53,91.76Z" transform="translate(-10.66 -6.22)"/><path class="cls-1" d="M53.4,98.09V84.56h5.22V86H55v4.54h3.1V92H55v4.6h3.59v1.46H53.4Z" transform="translate(-10.66 -6.22)"/><path class="cls-1" d="M67.49,98.09V91.93h-3v6.16H62.86V84.56h1.63v5.91h3V84.56h1.63V98.09H67.49Z" transform="translate(-10.66 -6.22)"/><path class="cls-1" d="M73.8,98.09V84.56h1.63V98.09H73.8Z" transform="translate(-10.66 -6.22)"/><path class="cls-1" d="M85.26,98.09l-3.5-9.25v9.25H80.13V84.56h1.52l3.46,9.25V84.56h1.63V98.09H85.26Z" transform="translate(-10.66 -6.22)"/><path class="cls-1" d="M96.87,97.14a2.94,2.94,0,0,1-2.32,1H91.43V84.56h3.12a2.94,2.94,0,0,1,2.32,1c0.87,0.93,1,2.15,1,5.81S97.74,96.21,96.87,97.14Zm-1.22-10.6A1.43,1.43,0,0,0,94.49,86H93.07v10.6h1.42a1.43,1.43,0,0,0,1.16-.51c0.51-.63.55-1.67,0.55-4.79S96.16,87.16,95.65,86.54Z" transform="translate(-10.66 -6.22)"/><path class="cls-1" d="M102.19,98.09V84.56h5.22V86h-3.59v4.54h3.1V92h-3.1v4.6h3.59v1.46h-5.22Z" transform="translate(-10.66 -6.22)"/><path class="cls-1" d="M116.61,98.09l-1.86-5.81h-1.46v5.81h-1.63V84.56h3.06c2.05,0,3.19.89,3.19,3.86,0,1.88-.46,3-1.63,3.53l2.07,6.14h-1.73ZM114.73,86h-1.44v4.81h1.44c1.25,0,1.54-1,1.54-2.41S116,86,114.73,86Z" transform="translate(-10.66 -6.22)"/><path class="cls-1" d="M125.16,86V98.09h-1.63V86h-2.28V84.56h6.17V86h-2.26Z" transform="translate(-10.66 -6.22)"/><path class="cls-1" d="M131.28,98.09V84.56h5.22V86h-3.59v4.54H136V92h-3.1v4.6h3.59v1.46h-5.22Z" transform="translate(-10.66 -6.22)"/><path class="cls-1" d="M151.64,97.4a3.36,3.36,0,0,1-2.39.82,3.24,3.24,0,0,1-2.37-.82,3.62,3.62,0,0,1-.84-2.85h1.63a2.35,2.35,0,0,0,.46,1.77,1.73,1.73,0,0,0,2.28,0,2.49,2.49,0,0,0,.44-1.8c0-1.56-.23-2-1.33-2.49L148,91.38c-1.39-.57-1.84-1.33-1.84-3.38a3.64,3.64,0,0,1,1-2.77,3.06,3.06,0,0,1,2.15-.78,3.11,3.11,0,0,1,2.24.78,3.56,3.56,0,0,1,.89,2.77h-1.63a2.39,2.39,0,0,0-.42-1.63,1.33,1.33,0,0,0-1.1-.46,1.36,1.36,0,0,0-1,.42,2.37,2.37,0,0,0-.48,1.61c0,1.33.21,1.73,1.29,2.18l1.52,0.63c1.54,0.63,1.9,1.58,1.9,3.7A3.86,3.86,0,0,1,151.64,97.4Z" transform="translate(-10.66 -6.22)"/><path class="cls-1" d="M159.76,86V98.09h-1.63V86h-2.28V84.56H162V86h-2.26Z" transform="translate(-10.66 -6.22)"/><path class="cls-1" d="M171.14,97.35a3.14,3.14,0,0,1-2.26.89,3.1,3.1,0,0,1-2.24-.89,3.21,3.21,0,0,1-.87-2.34V84.56h1.63V95.11a1.5,1.5,0,1,0,3,0V84.56H172V95A3.21,3.21,0,0,1,171.14,97.35Z" transform="translate(-10.66 -6.22)"/><path class="cls-1" d="M182,97.14a2.94,2.94,0,0,1-2.32,1h-3.12V84.56h3.12a2.94,2.94,0,0,1,2.32,1c0.87,0.93,1,2.15,1,5.81S182.88,96.21,182,97.14Zm-1.22-10.6a1.43,1.43,0,0,0-1.16-.51h-1.42v10.6h1.42a1.43,1.43,0,0,0,1.16-.51c0.51-.63.55-1.67,0.55-4.79S181.3,87.16,180.79,86.54Z" transform="translate(-10.66 -6.22)"/><path class="cls-1" d="M187.33,98.09V84.56H189V98.09h-1.63Z" transform="translate(-10.66 -6.22)"/><path class="cls-1" d="M193.65,98.09V84.56h5.22V86h-3.59v4.54h3.1V92h-3.1v4.6h3.59v1.46h-5.22Z" transform="translate(-10.66 -6.22)"/><path class="cls-1" d="M208.07,98.09l-1.86-5.81h-1.46v5.81h-1.63V84.56h3.06c2.05,0,3.19.89,3.19,3.86,0,1.88-.46,3-1.63,3.53l2.07,6.14h-1.73ZM206.19,86h-1.44v4.81h1.44c1.25,0,1.54-1,1.54-2.41S207.45,86,206.19,86Z" transform="translate(-10.66 -6.22)"/><path class="cls-1" d="M214,98.09V84.56h5.22V86h-3.59v4.54h3.1V92h-3.1v4.6h3.59v1.46H214Z" transform="translate(-10.66 -6.22)"/><path class="cls-1" d="M228.59,98.09l-3.5-9.25v9.25h-1.63V84.56H225l3.46,9.25V84.56h1.63V98.09h-1.48Z" transform="translate(-10.66 -6.22)"/><path class="cls-1" d="M240.2,97.14a2.94,2.94,0,0,1-2.32,1h-3.12V84.56h3.12a2.94,2.94,0,0,1,2.32,1c0.87,0.93,1,2.15,1,5.81S241.07,96.21,240.2,97.14ZM239,86.54a1.43,1.43,0,0,0-1.16-.51H236.4v10.6h1.42a1.43,1.43,0,0,0,1.16-.51c0.51-.63.55-1.67,0.55-4.79S239.5,87.16,239,86.54Z" transform="translate(-10.66 -6.22)"/><path class="cls-1" d="M245.52,98.09V84.56h5.22V86h-3.59v4.54h3.1V92h-3.1v4.6h3.59v1.46h-5.22Z" transform="translate(-10.66 -6.22)"/><path class="cls-1" d="M142.64,12.22" transform="translate(-10.66 -6.22)"/><path class="cls-1" d="M142.67,6.22" transform="translate(-10.66 -6.22)"/><path class="cls-1" d="M142.67,6.22" transform="translate(-10.66 -6.22)"/><path class="cls-1" d="M142.67,12c4.47,1.2,22.64,6.07,42.92,11.54V6.22H142.67V12Z" transform="translate(-10.66 -6.22)"/><path class="cls-1" d="M221.95,33.36V18H190.87v6.9C201.47,27.81,212.35,30.75,221.95,33.36Z" transform="translate(-10.66 -6.22)"/><path class="cls-1" d="M250.94,41.39V25.2H227v9.34c1.37,0.43,3.78,1.16,6.65,2C242.26,38.91,248.62,40.68,250.94,41.39Z" transform="translate(-10.66 -6.22)"/><path class="cls-2" d="M157.95,23.75c-6-2.77-11.65-6-15.3-9.5V49.1h42.91V34.25A161.33,161.33,0,0,1,157.95,23.75Z" transform="translate(-10.66 -6.22)"/><path class="cls-2" d="M190.87,35.68V49.07h31.08V41.53l-2.49-.38A242.74,242.74,0,0,1,190.87,35.68Z" transform="translate(-10.66 -6.22)"/><path class="cls-2" d="M246,43.46l-0.56,0-2-.1c-6-.3-13.2-0.77-16.45-1.26v7h23.91V43.65l-2.91-.1Z" transform="translate(-10.66 -6.22)"/></svg>