<?xml version="1.0" encoding="utf-8"?>
<!-- Generator: Adobe Illustrator 16.0.0, SVG Export Plug-In . SVG Version: 6.00 Build 0)  -->
<!DOCTYPE svg PUBLIC "-//W3C//DTD SVG 1.1//EN" "http://www.w3.org/Graphics/SVG/1.1/DTD/svg11.dtd">
<svg version="1.1" id="Ebene_1" xmlns="http://www.w3.org/2000/svg" xmlns:xlink="http://www.w3.org/1999/xlink" x="0px" y="0px"
     width="917px" height="283px" viewBox="0 0 917 283" enable-background="new 0 0 917 283" xml:space="preserve">
<g>
	<defs>
		<rect id="SVGID_1_" x="1" y="1" width="914.474" height="281"/>
	</defs>
    <clipPath id="SVGID_2_">
		<use xlink:href="#SVGID_1_"  overflow="visible"/>
	</clipPath>
    <path clip-path="url(#SVGID_2_)" fill="#FFFFFF" d="M861.756,104.674c0-7.065-5.695-12.795-12.705-12.795
		c-7.022,0-12.708,5.729-12.708,12.795c0,7.057,5.686,12.785,12.708,12.785C856.061,117.459,861.756,111.73,861.756,104.674
		 M861.756,66.593c0-7.066-5.695-12.795-12.705-12.795c-7.022,0-12.708,5.729-12.708,12.795c0,7.056,5.686,12.775,12.708,12.775
		C856.061,79.368,861.756,73.648,861.756,66.593 M812.506,104.674c0-7.065-5.686-12.795-12.705-12.795
		c-7.013,0-12.706,5.729-12.706,12.795c0,7.057,5.693,12.785,12.706,12.785C806.82,117.459,812.506,111.73,812.506,104.674
		 M812.506,66.527c0-7.056-5.686-12.785-12.705-12.785c-7.013,0-12.706,5.729-12.706,12.785c0,7.066,5.693,12.795,12.706,12.795
		C806.82,79.322,812.506,73.594,812.506,66.527 M773.943,66.527c0-7.056-5.694-12.785-12.715-12.785
		c-7.015,0-12.705,5.729-12.705,12.785c0,7.066,5.69,12.795,12.705,12.795C768.249,79.322,773.943,73.594,773.943,66.527
		 M836.343,142.618c0,7.074,5.686,12.794,12.708,12.794c7.01,0,12.705-5.72,12.705-12.794c0-7.056-5.695-12.775-12.705-12.775
		C842.028,129.843,836.343,135.562,836.343,142.618"/>
    <path clip-path="url(#SVGID_2_)" fill="#FFFFFF" d="M763.038,139.131c-0.065-2.232-1.059-3.028-3.329-3.093
		c-2.247-0.055-21.642-0.083-31.831-0.055v-0.009c-0.027,0-0.048,0.009-0.068,0.009c-4.58,0-8.084-3.633-8.084-8.21
		c0-22.157,0.036-69.162-0.077-70.179c-0.327-2.745-1.316-3.752-4.073-3.788c-4.871-0.056-9.731-0.092-14.588,0
		c-1.896,0.046-3.172,1.51-3.31,3.396c-0.077,0.97-0.06,65.474-0.05,74.168h0.011c0.115,13.417,10.428,24.042,23.893,24.042h0.048
		v-0.018c9.529,0,37.439,0.01,38.087-0.064c2.052-0.21,3.344-1.354,3.397-3.413C763.161,147.652,763.175,143.387,763.038,139.131"/>
    <path clip-path="url(#SVGID_2_)" fill="#FFFFFF" d="M639.286,136.834c20.823,0,26.049-8.888,26.049-29.178v-5.144
		c0-23.337-6.8-30.283-24.745-30.283h-14.402v64.604H639.286z M641.896,53.751c33.654,0,44.655,19.174,44.655,47.38v6.113
		c0,27.512-10.739,48.067-46.355,48.067h-29.593c-4.189,0-5.104-0.833-5.104-5.418V59.315c0-4.586,0.786-5.564,5.104-5.564H641.896z
		"/>
    <path clip-path="url(#SVGID_2_)" fill="#FAB683" d="M581.922,227.452l13.516,45.467c0.18,1.271,1.355,2.157,2.627,1.979
		c0.08-0.011,0.259-0.037,0.259-0.037s189.84-51.738,238.931-68.462c0.851-0.262,1.662-0.614,2.504-0.896
		c-4.855,1.476-9.814,2.72-14.924,3.523l-0.004,0.02L581.922,227.452z"/>
    <path clip-path="url(#SVGID_2_)" fill="#F37920" d="M915.474,105.47C915.474,47.772,868.701,1,811.004,1H656.21
		C598.513,1,551.74,47.772,551.74,105.47l0.576,121.689c0,1.292,1.048,2.339,2.34,2.339h0.262l269.912-20.451l0.004-0.021
		C875.709,201.018,915.474,158.478,915.474,105.47"/>
    <path clip-path="url(#SVGID_2_)" fill="#FFFFFF" d="M861.756,104.674c0-7.065-5.695-12.795-12.705-12.795
		c-7.022,0-12.708,5.729-12.708,12.795c0,7.057,5.686,12.785,12.708,12.785C856.061,117.459,861.756,111.73,861.756,104.674
		 M861.756,66.593c0-7.066-5.695-12.795-12.705-12.795c-7.022,0-12.708,5.729-12.708,12.795c0,7.056,5.686,12.775,12.708,12.775
		C856.061,79.368,861.756,73.648,861.756,66.593 M812.506,104.674c0-7.065-5.686-12.795-12.705-12.795
		c-7.013,0-12.706,5.729-12.706,12.795c0,7.057,5.693,12.785,12.706,12.785C806.82,117.459,812.506,111.73,812.506,104.674
		 M812.506,66.527c0-7.056-5.686-12.785-12.705-12.785c-7.013,0-12.706,5.729-12.706,12.785c0,7.066,5.693,12.795,12.706,12.795
		C806.82,79.322,812.506,73.594,812.506,66.527 M773.943,66.527c0-7.056-5.694-12.785-12.715-12.785
		c-7.015,0-12.705,5.729-12.705,12.785c0,7.066,5.69,12.795,12.705,12.795C768.249,79.322,773.943,73.594,773.943,66.527
		 M836.343,142.618c0,7.074,5.686,12.794,12.708,12.794c7.01,0,12.705-5.72,12.705-12.794c0-7.056-5.695-12.775-12.705-12.775
		C842.028,129.843,836.343,135.562,836.343,142.618"/>
    <path clip-path="url(#SVGID_2_)" fill="#FFFFFF" d="M763.038,139.131c-0.065-2.232-1.059-3.028-3.329-3.093
		c-2.247-0.055-21.642-0.083-31.831-0.055v-0.009c-0.027,0-0.048,0.009-0.068,0.009c-4.58,0-8.084-3.633-8.084-8.21
		c0-22.157,0.036-69.162-0.077-70.179c-0.327-2.745-1.316-3.752-4.073-3.788c-4.871-0.056-9.731-0.092-14.588,0
		c-1.896,0.046-3.172,1.51-3.31,3.396c-0.077,0.97-0.06,65.474-0.05,74.168h0.011c0.115,13.417,10.428,24.042,23.893,24.042h0.048
		v-0.018c9.529,0,37.439,0.01,38.087-0.064c2.052-0.21,3.344-1.354,3.397-3.413C763.161,147.652,763.175,143.387,763.038,139.131"/>
    <path clip-path="url(#SVGID_2_)" fill="#FFFFFF" d="M639.286,136.834c20.823,0,26.049-8.888,26.049-29.178v-5.144
		c0-23.337-6.8-30.283-24.745-30.283h-14.402v64.604H639.286z M641.896,53.751c33.654,0,44.655,19.174,44.655,47.38v6.113
		c0,27.512-10.739,48.067-46.355,48.067h-29.593c-4.189,0-5.104-0.833-5.104-5.418V59.315c0-4.586,0.786-5.564,5.104-5.564H641.896z
		"/>
    <path clip-path="url(#SVGID_2_)" fill="#3F4343" d="M368.469,210.188c0,0.219,0.062,0.469,0.156,0.656l3.406,11.438
		c0,0,0.031,46.594,0.094,54.344c0.031,2.125,1.25,3.531,3.25,3.562c4.531,0.125,9.094,0.125,13.625,0.031
		c1.937-0.062,2.969-1.125,3.187-3.062c0.125-1.312,0.032-24.938,0.219-35.438c0.063-3.875,0.625-7.781,1.438-11.562
		c1.531-6.906,8.062-10.062,14.406-9.062c2.562,0.406,5.062,1.344,7.531,2.188c2.906,1.031,5,0.469,6.094-2.312
		c1.25-3.281,2.312-6.688,3-10.094c0.875-4.125-0.844-5.03-4.031-6.062c-3.344-1.062-6.719-1.406-10.125-1.312v-0.03
		c-10.688,0.093-15.75,3.655-20.438,9.53h-0.594l-3.031-7.812c-0.312-0.812-1.125-1.406-2.094-1.406
		c-0.187,0-0.343,0.063-0.531,0.094c-0.156,0.031-13.875,4.188-13.875,4.188C369.188,208.312,368.469,209.156,368.469,210.188
		 M140.156,232.75c0-8.156,5.375-14,13.812-14s13.125,4.5,13.125,13.594v1.094h-26.938V232.75z M120.063,239.156v5.281
		c0,21.906,7.375,37.562,36.718,37.562c9.125,0,17.719-2.031,24.125-5.156c4.562-2.062,6.188-3.156,6.188-5.594
		c0-1.625-1.344-3.812-2.562-6.125c-1.875-3.656-2.688-4.625-4.688-4.625c-1.75,0-4.031,1.375-5.906,2.188
		c-5.875,2.438-11.25,3.125-15.688,3.125c-13.375,0-18.094-6.25-18.094-16.344v-1.062H182c4.563,0,5.094-1.094,5.094-5.438v-2.031
		c0-26-10.062-37.281-32.875-37.281C132.781,203.656,120.063,215.344,120.063,239.156 M71.625,210.281v5.438
		c0,4.469,0.969,5.281,5.438,5.281h7.156v53.844c0,4.344,0.812,5.438,5.406,5.438h9.5c4.469,0,5.438-0.969,5.438-5.438v-64.562
		c0-4.062-0.563-5.281-5.282-5.281H76.938C72.844,205,71.625,205.562,71.625,210.281 M1.063,184.156C1,185.125,1,248.281,1,256.781
		c0.125,13.156,10.219,23.562,23.375,23.562h0.063v-0.031c9.312,0,42.187,0,42.812-0.062c2-0.188,3.281-1.344,3.313-3.344
		c0.125-4.188,0.125-8.344,0-12.531c-0.094-2.188-1.063-2.969-3.282-3c-2.188-0.094-26.718-0.094-36.688-0.094h-0.062
		c-4.468,0-7.906-3.531-7.906-8.031c0-21.688,0.031-67.719-0.094-68.719c-0.312-2.687-1.281-3.656-3.968-3.687
		c-4.75-0.063-9.5-0.095-14.282,0C2.438,180.875,1.188,182.312,1.063,184.156 M61.094,110.656c0,19.844-5.594,28.563-27.781,28.563
		H23.031V75.97h11.688c19.094,0,26.375,6.812,26.375,29.655V110.656z M83.656,110.25v-6c0-27.594-11.718-46.375-47.531-46.375H6.438
		C1.844,57.875,1,58.812,1,63.312v88.657c0,4.53,0.969,5.343,5.438,5.343h27.875C72.219,157.312,83.656,137.188,83.656,110.25
		 M93.625,173.345c-6.812,0-12.219,5.405-12.219,12.03c0,6.812,5.407,12.22,12.219,12.22c6.625,0,12-5.407,12-12.22
		C105.625,178.75,100.25,173.345,93.625,173.345 M142.469,87.406c0.812-4.094-0.375-4.969-3.5-5.875
		c-4.219-1.094-8.156-1.094-8.156-1.094c-10.125,0.094-14.907,3.657-19.344,9.5h-0.562l-2.875-7.781
		c-0.312-0.844-1.062-1.437-1.968-1.437c-0.188,0-0.344,0.062-0.5,0.093l-0.032,0.032c-0.125,0.03-13.125,4.187-13.125,4.187
		c-0.906,0.25-1.593,1.094-1.593,2.125c0,0.219,0.062,0.438,0.156,0.656l3.094,11.031v54.812c0.031,2.125,1.187,3.531,3.093,3.563
		h13.094c1.844-0.032,3.219-1.157,3.219-3.032c0-1.375-0.156-25,0-35.5c0.062-3.843,0.594-7.75,1.375-11.531
		c1.469-6.906,7.406-10.031,13.406-9c2.438,0.375,4.125,1.188,6.469,2.062c2.75,1,3.875,0.094,4.875-2.688
		C140.781,94.25,141.781,90.845,142.469,87.406 M187.406,127.25c0,7.22-2.468,16.031-14.438,16.031
		c-5.031,0-9.406-2.437-9.406-9.219c0-6.968,4.125-11.312,19.187-11.312h4.656V127.25z M211.094,150.375
		c0-0.938-0.375-2.155-1.531-4.625c-2.063-4.219-3.219-8.03-3.219-16.875v-26.281c0-12.938-6.188-22.312-30.656-22.312
		c-8.375,0-14.282,1.094-21.094,3.844c-3.219,1.345-4.906,2.438-4.906,4.469c0,1.781,1.156,4.501,2.062,6.969
		c1.688,3.781,2.438,4.875,4.531,4.875c1.657,0,3.844-1.094,5.782-1.906c4.625-1.656,8.468-2.562,12.968-2.469
		c8.75,0.157,12.375,3.125,12.375,9.531v3.812h-4.125c-28.468,0-38.781,8.156-38.781,25.594c0,15.125,8.5,23.812,23.813,23.812
		c10.468,0,17.406-5.031,22.687-11.562c0.781,2.875,1.813,6.125,3.344,8.72c1.312,2.155,2.188,2.843,4,2.843
		s3.094-0.688,5.281-1.906l3.219-1.906C209.563,153.375,211.094,152.281,211.094,150.375 M219.281,205.156
		c-0.343-0.844-1.156-1.437-2.093-1.437c-0.219,0-0.375,0.062-0.532,0.125L202.75,208c-0.969,0.281-1.687,1.095-1.687,2.125
		c0,0.25,0.062,0.469,0.156,0.688l2.219,11.344v52.719c0,4.188,0.687,5.406,5.437,5.406h9.906c4.219,0,5.032-1.344,5.032-5.031
		v-46.438c0-2.188,0-3,0.937-3.938c2.469-2.312,8.656-5.312,15.188-5.312c9.5,0,11.406,6.938,11.406,14.406V275
		c0,4.219,0.938,5.281,5.312,5.281h9.5c4.625,0,5.438-0.812,5.438-5.562v-48.094c0-14.406-8.281-22.938-24.312-22.938
		c-8.562,0-17.906,3.125-23.593,9.781h-0.563L219.281,205.156z M237.813,110.219v-0.688c0-8.156,5.156-14,13.281-14
		c8.094,0,12.594,4.5,12.594,13.594v1.094H237.813z M237.813,126.281v-1.094H278c4.375,0,4.875-1.093,4.875-5.438v-2.03
		c0-26-9.656-37.282-31.531-37.282c-20.594,0-32.844,11.719-32.844,35.5v5.312c0,21.906,7.094,37.531,35.281,37.531
		c8.75,0,17-2.031,23.188-5.156c4.375-2.062,5.906-3.155,5.906-5.562c0-1.656-1.281-3.812-2.437-6.156
		c-1.782-3.656-2.563-4.594-4.5-4.594c-1.688,0-3.875,1.344-5.688,2.157c-5.656,2.437-10.781,3.125-15.031,3.125
		C242.344,142.595,237.813,136.345,237.813,126.281 M306.125,232.75c0-8.156,5.344-14,13.781-14c8.469,0,13.157,4.5,13.157,13.594
		v1.094h-26.938V232.75z M286,239.156v5.281c0,21.906,7.375,37.562,36.75,37.562c9.094,0,17.688-2.031,24.125-5.156
		c4.563-2.062,6.156-3.156,6.156-5.594c0-1.625-1.343-3.812-2.531-6.125c-1.875-3.656-2.687-4.625-4.687-4.625
		c-1.75,0-4.032,1.375-5.907,2.188c-5.906,2.438-11.281,3.125-15.688,3.125c-13.406,0-18.094-6.25-18.094-16.344v-1.062h41.813
		c4.562,0,5.093-1.094,5.093-5.438v-2.031c0-26-10.062-37.281-32.843-37.281C298.75,203.656,286,215.344,286,239.156
		 M312.75,107.812c-0.062-8.75,7-13.656,14.031-13.718c7.438-0.063,13.219,4.593,13.282,13.499
		c0.062,8.594-5.938,13.469-13.094,13.531C319.656,121.22,312.813,116.72,312.75,107.812 M360.125,188.72
		c7-6.782,12.219-15.5,12.125-25.97c-0.094-10.188-5.094-16.312-13.875-18.75c-2.062-0.594-4.375-0.969-6.875-1.125
		c-2.062-0.125-4.281-0.125-6.656,0.031l-25.219,1.563c-4.969,0.312-7.344-0.75-7.562-3.875c-0.157-3.22,1.875-5.407,2.937-6.313
		c2.313,0.656,4.688,1.125,7.063,1.313c1.656,0.218,3.375,0.343,5.125,0.312c19.625-0.156,31.062-12.5,30.906-28.812
		c-0.031-4.531-0.625-7.906-2.75-12.281c-1.031-2.218-2.156-3.938-3.375-5.531c1.312,0.594,2.781,0.906,4.344,0.906
		c6.437,0,11.562-5.406,11.562-12.219c0-6.594-5.125-12.031-11.562-12.031c-6.438,0-11.375,5.438-11.375,12.031
		c0,2.406,0.625,4.594,1.718,6.469c-0.968-0.593-1.968-1.219-3.125-1.781c-18.593-8.969-49.062-1.812-48.812,24.969
		c0.062,8.625,3.438,16.125,9.656,21.188c-7.687,5.344-12.5,14.938-7.125,24.625c4.188,7.469,13.219,8.157,14.813,8.282
		c2.343,0.155,30.062-0.5,30.062-0.5c1.094-0.063,2.063-0.095,2.938-0.095c3.562,0.125,7,1.406,7.062,5.625
		c0.031,3.156-1.531,5.845-3.656,8.5c-0.25,0.345-0.375,0.812-0.375,1.281s0.125,0.906,0.594,1.563l8.218,10.5
		c0.407,0.5,1,0.843,1.688,0.843C359.188,189.438,359.719,189.156,360.125,188.72 M393.156,110.219v-0.688
		c0-8.156,5.125-14,13.25-14s12.625,4.5,12.625,13.594v1.094H393.156z M393.156,126.281v-1.094h40.156
		c4.375,0,4.907-1.093,4.907-5.438v-2.03c0-26-9.657-37.282-31.563-37.282c-20.594,0-32.812,11.719-32.812,35.5v5.312
		c0,21.906,7.062,37.531,35.281,37.531c8.719,0,16.969-2.031,23.156-5.156c4.375-2.062,5.938-3.155,5.938-5.562
		c0-1.656-1.313-3.812-2.469-6.156c-1.781-3.656-2.563-4.594-4.5-4.594c-1.688,0-3.875,1.344-5.656,2.157
		c-5.657,2.437-10.813,3.125-15.063,3.125C397.656,142.595,393.156,136.345,393.156,126.281 M456.594,185.312l-6.563,2.844
		c-3.562,1.625-4.25,3.125-4.25,7.031v8.032c0,4.593-1.375,6.905-6.437,8.405c-3.407,0.969-4.375,2.031-4.375,4.875v2.031
		c0,3.938,0.687,5.156,5.343,5.156h5.469v33.906c0,17.375,8.625,24.156,24.125,24.156c6.438,0,13.562-1.781,18.219-3.656
		c2.594-1.25,4.219-2.062,4.219-4.094c0-1.875-0.688-3.25-2.157-7.312c-1.125-2.969-1.655-4.344-3.843-4.344
		c-2.344,0-7.406,2.719-12.062,2.719c-5.75,0-8.094-2.312-8.094-9.219v-32.156H484c5.062,0,5.75-0.969,5.75-5.281v-5.312
		c0-4.344-0.531-5.406-5.625-5.406h-17.938v-19.125c0-2.718-0.25-4.75-3.688-4.75C460.844,183.812,458.938,184.375,456.594,185.312
		 M498.5,81.531c-4.219-1.094-8.188-1.094-8.188-1.094c-10.093,0.094-14.874,3.657-19.312,9.5h-0.562l-2.875-7.781
		c-0.312-0.844-1.062-1.437-1.969-1.437c-0.188,0-0.344,0.062-0.5,0.093l-0.031,0.032c-0.125,0.03-13.125,4.187-13.125,4.187
		c-0.906,0.25-1.593,1.094-1.593,2.125c0,0.219,0.062,0.438,0.125,0.656l3.125,11.031v54.812c0.031,2.125,1.156,3.531,3.062,3.563
		h13.125c1.844-0.032,3.219-1.157,3.219-3.032c0-1.375-0.188-25,0-35.5c0.062-3.843,0.594-7.75,1.375-11.531
		c1.438-6.906,7.406-10.031,13.406-9c2.438,0.375,4.125,1.188,6.469,2.062c2.719,1,3.844,0.094,4.875-2.688
		c1.187-3.281,2.188-6.687,2.875-10.125C502.812,83.312,501.594,82.438,498.5,81.531"/>
</g>
</svg>
